<svg width="20" height="20" viewBox="0 0 20 20" fill="none" xmlns="http://www.w3.org/2000/svg">
<path d="M10 2.5H4.16667C3.72464 2.5 3.30072 2.67559 2.98816 2.98816C2.67559 3.30072 2.5 3.72464 2.5 4.16667V15.8333C2.5 16.2754 2.67559 16.6993 2.98816 17.0118C3.30072 17.3244 3.72464 17.5 4.16667 17.5H15.8333C16.2754 17.5 16.6993 17.3244 17.0118 17.0118C17.3244 16.6993 17.5 16.2754 17.5 15.8333V10" stroke="#22C55E" stroke-width="1.25" stroke-linecap="round" stroke-linejoin="round"/>
<path d="M15.3132 2.18964C15.6447 1.85812 16.0944 1.67188 16.5632 1.67188C17.0321 1.67188 17.4817 1.85812 17.8132 2.18964C18.1447 2.52116 18.331 2.9708 18.331 3.43964C18.331 3.90848 18.1447 4.35812 17.8132 4.68964L10.3024 12.2013C10.1045 12.399 9.86007 12.5437 9.59156 12.6221L7.1974 13.3221C7.12569 13.3431 7.04968 13.3443 6.97732 13.3258C6.90496 13.3072 6.83892 13.2696 6.7861 13.2168C6.73328 13.164 6.69564 13.0979 6.6771 13.0256C6.65856 12.9532 6.65981 12.8772 6.68073 12.8055L7.38073 10.4113C7.4595 10.143 7.60451 9.89886 7.8024 9.70131L15.3132 2.18964Z" stroke="#22C55E" stroke-width="1.25" stroke-linecap="round" stroke-linejoin="round"/>
</svg>
