<svg width="12" height="12" viewBox="0 0 12 12" fill="none" xmlns="http://www.w3.org/2000/svg">
<path d="M3.21466 0.5C2.37898 0.5 1.68472 1.12525 1.57238 1.93117C0.767149 2.04417 0.142578 2.73641 0.142578 3.57144V9.84147C0.142578 10.755 0.888945 11.5 1.80244 11.5H8.0705C8.90618 11.5 9.60044 10.8754 9.71278 10.0702C10.518 9.95718 11.1426 9.26359 11.1426 8.42856V2.16044C11.1426 1.24693 10.3962 0.500554 9.48271 0.500554L3.21466 0.5ZM3.21466 1.19292H9.48271C10.024 1.19292 10.4497 1.61854 10.4497 2.15988V8.42801C10.4497 8.88341 10.1485 9.2549 9.73105 9.36249V3.57144C9.73105 2.65793 8.98469 1.91291 8.07119 1.91291H2.2802C2.38712 1.49472 2.75928 1.19293 3.21535 1.19293L3.21466 1.19292ZM1.80246 2.60513H1.90599C1.90802 2.60581 8.07045 2.60513 8.07045 2.60513C8.61179 2.60513 9.03741 3.03008 9.03741 3.5721V9.84213C9.03741 10.3835 8.61179 10.8091 8.07045 10.8091H1.8024C1.26107 10.8091 0.836121 10.3835 0.836121 9.84213V3.5721C0.836121 3.03076 1.26112 2.60513 1.80246 2.60513Z" fill="#1F2937"/>
</svg>
