<svg width="20" height="20" viewBox="0 0 20 20" fill="none" xmlns="http://www.w3.org/2000/svg">
<path d="M17.1912 13.3324C17.1263 13.2543 17.0627 13.1762 17.0002 13.1008C16.1408 12.0613 15.6209 11.434 15.6209 8.49141C15.6209 6.96797 15.2564 5.71797 14.5381 4.78047C14.0084 4.08789 13.2924 3.5625 12.3486 3.17422C12.3365 3.16746 12.3256 3.1586 12.3166 3.14805C11.9771 2.01133 11.0482 1.25 10.0006 1.25C8.95291 1.25 8.02439 2.01133 7.68494 3.14687C7.67588 3.15704 7.66518 3.16562 7.6533 3.17227C5.45095 4.07891 4.38064 5.81836 4.38064 8.49023C4.38064 11.434 3.8615 12.0613 3.00135 13.0996C2.93885 13.175 2.87517 13.2516 2.81033 13.3312C2.64283 13.5332 2.5367 13.779 2.50451 14.0394C2.47232 14.2999 2.51542 14.5641 2.62869 14.8008C2.8697 15.3086 3.38338 15.6238 3.9697 15.6238H16.0357C16.6193 15.6238 17.1295 15.309 17.3713 14.8035C17.485 14.5667 17.5285 14.3023 17.4966 14.0416C17.4647 13.7809 17.3587 13.5348 17.1912 13.3324V13.3324Z" fill="#22C55E"/>
<path d="M10.0017 18.75C10.5662 18.7495 11.12 18.5963 11.6044 18.3066C12.0889 18.0168 12.4859 17.6014 12.7533 17.1043C12.7659 17.0805 12.7721 17.0538 12.7713 17.0269C12.7706 16.9999 12.7629 16.9736 12.749 16.9506C12.735 16.9275 12.7154 16.9084 12.6919 16.8952C12.6684 16.8819 12.642 16.875 12.615 16.875H7.38922C7.36224 16.8749 7.33569 16.8818 7.31216 16.895C7.28864 16.9082 7.26893 16.9273 7.25497 16.9504C7.24101 16.9735 7.23326 16.9998 7.23249 17.0268C7.23171 17.0537 7.23793 17.0804 7.25055 17.1043C7.51794 17.6013 7.91487 18.0167 8.39922 18.3065C8.88358 18.5962 9.43732 18.7495 10.0017 18.75Z" fill="#22C55E"/>
</svg>
