<svg width="20" height="20" viewBox="0 0 20 20" fill="none" xmlns="http://www.w3.org/2000/svg">
<path d="M16.6667 6.66406H3.33333C2.8731 6.66406 2.5 7.03716 2.5 7.4974V9.16406C2.5 9.6243 2.8731 9.9974 3.33333 9.9974H16.6667C17.1269 9.9974 17.5 9.6243 17.5 9.16406V7.4974C17.5 7.03716 17.1269 6.66406 16.6667 6.66406Z" fill="#22C55E"/>
<path d="M10 6.66406V17.4974" stroke="#1F2937" stroke-width="1.66667" stroke-linecap="round" stroke-linejoin="round"/>
<path d="M15.8307 10V15.8333C15.8307 16.2754 15.6551 16.6993 15.3426 17.0118C15.03 17.3244 14.6061 17.5 14.1641 17.5H5.83073C5.3887 17.5 4.96478 17.3244 4.65222 17.0118C4.33966 16.6993 4.16406 16.2754 4.16406 15.8333V10" fill="#22C55E"/>
<path d="M6.2474 6.66703C5.69486 6.66703 5.16496 6.44754 4.77426 6.05684C4.38356 5.66614 4.16406 5.13623 4.16406 4.5837C4.16406 4.03116 4.38356 3.50126 4.77426 3.11056C5.16496 2.71986 5.69486 2.50036 6.2474 2.50036C7.0513 2.48636 7.83908 2.87641 8.50801 3.61966C9.17694 4.36292 9.69596 5.42487 9.9974 6.66703C10.2988 5.42487 10.8179 4.36292 11.4868 3.61966C12.1557 2.87641 12.9435 2.48636 13.7474 2.50036C14.2999 2.50036 14.8298 2.71986 15.2205 3.11056C15.6112 3.50126 15.8307 4.03116 15.8307 4.5837C15.8307 5.13623 15.6112 5.66614 15.2205 6.05684C14.8298 6.44754 14.2999 6.66703 13.7474 6.66703" fill="#22C55E"/>
</svg>
