<svg width="19" height="19" viewBox="0 0 19 19" fill="none" xmlns="http://www.w3.org/2000/svg">
<path d="M11.361 1.52266C10.6008 0.701953 9.5391 0.25 8.36722 0.25C7.1891 0.25 6.12387 0.699219 5.36722 1.51484C4.60238 2.33945 4.22973 3.46016 4.31723 4.67031C4.49066 7.05781 6.30746 9 8.36722 9C10.427 9 12.2407 7.0582 12.4168 4.67109C12.5055 3.47187 12.1305 2.35352 11.361 1.52266Z" fill="#22C55E"/>
<path d="M8.36723 10.25C8.53291 10.25 8.69864 10.2545 8.86332 10.2627C8.31464 11.216 8.00004 12.3211 8.00004 13.5C8.00004 15.1254 8.59789 16.6103 9.58403 17.75H1.49223C1.3124 17.7523 1.13414 17.7148 0.970744 17.6396C0.807235 17.5644 0.662261 17.4536 0.546916 17.3154C0.293072 17.0119 0.19087 16.5968 0.266643 16.1777C0.596375 14.3491 1.62532 12.8128 3.24223 11.7344C4.67883 10.777 6.49902 10.2501 8.36723 10.25Z" fill="#22C55E"/>
<path d="M10.3672 15.225L11.2902 14.843M11.2902 12.547L10.3672 12.164M12.9142 10.923L12.5312 10M12.9142 16.467L12.5312 17.391M15.2102 10.923L15.5932 10M15.5922 17.391L15.2102 16.467M16.8342 12.547L17.7582 12.164M16.8342 14.843L17.7582 15.226M17.0622 13.695C17.0622 15.3519 15.719 16.695 14.0622 16.695C12.4053 16.695 11.0622 15.3519 11.0622 13.695C11.0622 12.0381 12.4053 10.695 14.0622 10.695C15.719 10.695 17.0622 12.0381 17.0622 13.695Z" stroke="#22C55E" stroke-width="2" stroke-linecap="round" stroke-linejoin="round"/>
</svg>
