<svg width="16" height="15" viewBox="0 0 16 15" fill="none" xmlns="http://www.w3.org/2000/svg">
<path d="M8.46786 0.00788203C10.8778 0.196663 12.9379 2.03903 13.4573 4.37432C13.3996 4.38656 13.3821 4.3516 13.3454 4.32538C11.9358 3.3098 10.6889 2.79765 8.89983 3.06684C8.85436 3.07383 8.80014 3.03537 8.81413 3.11578C8.20728 2.99517 7.78931 2.99692 7.18421 3.11578C7.1982 3.03537 7.14398 3.07383 7.09851 3.06684C5.64347 2.84834 4.15345 3.21017 2.96249 4.06668C2.85931 4.14009 2.62146 4.31664 2.54102 4.39879C2.57249 4.12611 2.67043 3.83594 2.77011 3.57899C3.51337 1.62825 5.37415 0.215891 7.46402 0.0306057L7.50424 0.00788203C7.81729 0.0253618 8.15656 -0.0165896 8.46786 0.00788203Z" fill="#50B2D5"/>
<path d="M13.4766 4.47656C13.6078 4.54998 13.7442 4.69506 13.8474 4.80868C17.3923 8.69093 14.1307 14.863 8.92264 14.1446C8.63233 14.1044 8.31579 14.0327 8.04297 13.9261C8.04647 13.9261 8.05521 13.8929 8.08669 13.8842C9.92123 13.2776 11.3116 11.687 11.7243 9.80613C11.7313 9.77292 11.7435 9.73622 11.7488 9.70825C11.8555 9.68203 11.9586 9.55792 12.0356 9.47752C13.2965 8.14556 13.8439 6.29096 13.4784 4.47831L13.4766 4.47656Z" fill="#F1A23B"/>
<path d="M2.48949 4.5C2.07152 6.37732 2.84626 8.54481 4.26807 9.8051C4.29256 9.96941 4.33453 10.1337 4.38524 10.2928C4.93263 12.0198 6.25826 13.3028 7.9494 13.9251C5.19146 14.8428 2.15372 13.3815 1.07118 10.7175C0.250969 8.70213 0.691679 6.21826 2.25165 4.68179C2.31111 4.62411 2.41254 4.53321 2.48949 4.5Z" fill="#3176B1"/>
<path d="M11.7262 9.80469C11.3152 11.6855 9.92315 13.2744 8.08861 13.8827C8.05888 13.8932 8.04838 13.9247 8.04488 13.9247C8.02215 13.9317 7.97493 13.9194 7.94695 13.9247C6.25756 13.3024 4.93194 12.0194 4.3828 10.2924C4.33208 10.1333 4.29011 9.969 4.26562 9.80469C6.02671 11.3674 8.81438 11.6733 10.843 10.4409C11.1526 10.2539 11.4149 9.99172 11.7245 9.80469H11.7262Z" fill="#EF762F"/>
<path d="M2.5389 4.40205C2.61935 4.32164 2.85719 4.1451 2.96038 4.06994C4.14959 3.21343 5.63961 2.8516 7.0964 3.0701C7.14187 3.07709 7.19608 3.03863 7.18209 3.11904C4.11462 3.71685 2.86069 7.46101 4.94707 9.80504C7.03344 12.1491 10.8319 11.3537 11.8498 8.44861C11.8655 8.87162 11.8305 9.29288 11.7518 9.70715C11.7466 9.73512 11.7343 9.77183 11.7273 9.80504C11.4178 9.99207 11.1555 10.2543 10.8459 10.4413C8.81727 11.6736 6.03135 11.366 4.26851 9.80504C2.8467 8.54475 2.07196 6.37901 2.48994 4.49994C2.50043 4.44925 2.50218 4.43876 2.5389 4.40205Z" fill="#173F84"/>
<path d="M13.4519 4.38028C13.4589 4.41349 13.4694 4.44495 13.4764 4.47816C13.8419 6.29081 13.2962 8.14541 12.0336 9.47737C11.9566 9.55778 11.8534 9.68188 11.7467 9.7081C11.8272 9.29383 11.8604 8.87257 11.8447 8.44956C12.6579 6.12825 11.2029 3.59719 8.80693 3.11999C8.79294 3.03958 8.84715 3.07804 8.89262 3.07105C10.6817 2.80186 11.9286 3.31401 13.3382 4.32959C13.3749 4.35581 13.3907 4.39077 13.4501 4.37853L13.4519 4.38028Z" fill="#2F59C1"/>
<path d="M7.76641 4.92428C9.33512 4.77745 10.5313 6.23701 10.0749 7.74901C9.57122 9.41657 7.37292 9.82385 6.27989 8.46742C5.1956 7.12498 6.06303 5.08335 7.76641 4.92428ZM7.91506 6.06046C6.39531 6.17233 6.82553 8.56007 8.31555 8.08811C9.46978 7.72279 9.12351 5.97132 7.91506 6.06046Z" fill="#173F84"/>
</svg>
