<svg width="30" height="30" viewBox="0 0 30 30" fill="none" xmlns="http://www.w3.org/2000/svg">
<rect width="30" height="30" rx="4" fill="#F5F5F5"/>
<path d="M20.8307 22.5V20.8333C20.8307 19.9493 20.4795 19.1014 19.8544 18.4763C19.2293 17.8512 18.3815 17.5 17.4974 17.5H12.4974C11.6133 17.5 10.7655 17.8512 10.1404 18.4763C9.51525 19.1014 9.16406 19.9493 9.16406 20.8333V22.5" fill="#19BC64"/>
<path d="M14.9974 14.1667C16.8383 14.1667 18.3307 12.6743 18.3307 10.8333C18.3307 8.99238 16.8383 7.5 14.9974 7.5C13.1564 7.5 11.6641 8.99238 11.6641 10.8333C11.6641 12.6743 13.1564 14.1667 14.9974 14.1667Z" fill="#19BC64"/>
</svg>
