<svg width="30" height="30" viewBox="0 0 30 30" fill="none" xmlns="http://www.w3.org/2000/svg">
<rect width="30" height="30" rx="4" fill="#F5F5F5"/>
<path d="M8.20703 12.1846C8.0854 11.6367 8.10407 11.0669 8.26133 10.5282C8.41858 9.98942 8.70932 9.49909 9.10659 9.10265C9.50385 8.70622 9.99479 8.41651 10.5339 8.26038C11.0729 8.10426 11.6427 8.08677 12.1904 8.20955C12.4918 7.73814 12.907 7.35019 13.3978 7.08146C13.8886 6.81273 14.4392 6.67187 14.9987 6.67188C15.5582 6.67188 16.1088 6.81273 16.5996 7.08146C17.0904 7.35019 17.5056 7.73814 17.807 8.20955C18.3555 8.08624 18.9263 8.10364 19.4662 8.26015C20.0061 8.41665 20.4977 8.70717 20.8952 9.10468C21.2927 9.50219 21.5833 9.99378 21.7398 10.5337C21.8963 11.0737 21.9137 11.6444 21.7904 12.1929C22.2618 12.4943 22.6497 12.9096 22.9185 13.4003C23.1872 13.8911 23.328 14.4417 23.328 15.0012C23.328 15.5608 23.1872 16.1113 22.9185 16.6021C22.6497 17.0929 22.2618 17.5081 21.7904 17.8096C21.9131 18.3572 21.8957 18.927 21.7395 19.466C21.5834 20.0051 21.2937 20.4961 20.8973 20.8933C20.5008 21.2906 20.0105 21.5813 19.4717 21.7386C18.933 21.8958 18.3633 21.9145 17.8154 21.7929C17.5143 22.2661 17.0988 22.6557 16.6071 22.9257C16.1155 23.1956 15.5637 23.3371 15.0029 23.3371C14.442 23.3371 13.8902 23.1956 13.3986 22.9257C12.907 22.6557 12.4914 22.2661 12.1904 21.7929C11.6427 21.9157 11.0729 21.8982 10.5339 21.7421C9.99479 21.5859 9.50385 21.2962 9.10659 20.8998C8.70932 20.5033 8.41858 20.013 8.26133 19.4743C8.10407 18.9355 8.0854 18.3658 8.20703 17.8179C7.73199 17.5173 7.34071 17.1014 7.06957 16.6089C6.79843 16.1164 6.65625 15.5634 6.65625 15.0012C6.65625 14.439 6.79843 13.886 7.06957 13.3935C7.34071 12.9011 7.73199 12.4852 8.20703 12.1846Z" fill="#19BC64"/>
</svg>
