<svg width="30" height="30" viewBox="0 0 30 30" fill="none" xmlns="http://www.w3.org/2000/svg">
<rect width="30" height="30" rx="4" fill="#F5F5F5"/>
<path d="M18.3307 22.5V20.8333C18.3307 19.9493 17.9795 19.1014 17.3544 18.4763C16.7293 17.8512 15.8815 17.5 14.9974 17.5H9.9974C9.11334 17.5 8.26549 17.8512 7.64037 18.4763C7.01525 19.1014 6.66406 19.9493 6.66406 20.8333V22.5" fill="#19BC64"/>
<path d="M18.3359 7.60938C19.0507 7.79468 19.6838 8.2121 20.1357 8.79609C20.5876 9.38009 20.8328 10.0976 20.8328 10.836C20.8328 11.5745 20.5876 12.292 20.1357 12.876C19.6838 13.46 19.0507 13.8774 18.3359 14.0627" fill="#19BC64"/>
<path d="M18.3359 7.60938C19.0507 7.79468 19.6838 8.2121 20.1357 8.79609C20.5876 9.38009 20.8328 10.0976 20.8328 10.836C20.8328 11.5745 20.5876 12.292 20.1357 12.876C19.6838 13.46 19.0507 13.8774 18.3359 14.0627" stroke="#19BC64" stroke-width="1.25" stroke-linecap="round" stroke-linejoin="round"/>
<path d="M23.3359 22.501V20.8344C23.3354 20.0958 23.0896 19.3784 22.6371 18.7946C22.1846 18.2109 21.551 17.794 20.8359 17.6094" fill="#19BC64"/>
<path d="M23.3359 22.501V20.8344C23.3354 20.0958 23.0896 19.3784 22.6371 18.7946C22.1846 18.2109 21.551 17.794 20.8359 17.6094" stroke="#19BC64" stroke-width="1.25" stroke-linecap="round" stroke-linejoin="round"/>
<path d="M12.4974 14.1667C14.3383 14.1667 15.8307 12.6743 15.8307 10.8333C15.8307 8.99238 14.3383 7.5 12.4974 7.5C10.6564 7.5 9.16406 8.99238 9.16406 10.8333C9.16406 12.6743 10.6564 14.1667 12.4974 14.1667Z" fill="#19BC64"/>
</svg>
