<svg width="30" height="30" viewBox="0 0 30 30" fill="none" xmlns="http://www.w3.org/2000/svg">
<rect width="30" height="30" rx="4" fill="#F5F5F5"/>
<path d="M13.3359 15.83C13.6938 16.3085 14.1504 16.7044 14.6747 16.9908C15.1991 17.2773 15.7789 17.4476 16.3748 17.4903C16.9708 17.533 17.5689 17.447 18.1287 17.2382C18.6885 17.0294 19.1969 16.7026 19.6193 16.28L22.1193 13.78C22.8783 12.9942 23.2982 11.9417 23.2887 10.8492C23.2793 9.75672 22.841 8.71167 22.0685 7.93914C21.296 7.1666 20.2509 6.7284 19.1584 6.71891C18.066 6.70941 17.0134 7.12939 16.2276 7.88838L14.7943 9.31338" stroke="#19BC64" stroke-width="1.25" stroke-linecap="round" stroke-linejoin="round"/>
<path d="M16.6639 14.1631C16.306 13.6847 15.8494 13.2888 15.3251 13.0023C14.8008 12.7159 14.221 12.5455 13.625 12.5028C13.0291 12.4602 12.4309 12.5461 11.8711 12.755C11.3113 12.9638 10.803 13.2906 10.3806 13.7131L7.88057 16.2131C7.12158 16.999 6.7016 18.0515 6.7111 19.1439C6.72059 20.2364 7.15879 21.2815 7.93133 22.054C8.70386 22.8266 9.74891 23.2648 10.8414 23.2743C11.9339 23.2837 12.9864 22.8638 13.7722 22.1048L15.1972 20.6798" stroke="#19BC64" stroke-width="1.25" stroke-linecap="round" stroke-linejoin="round"/>
</svg>
