<svg width="30" height="30" viewBox="0 0 30 30" fill="none" xmlns="http://www.w3.org/2000/svg">
<rect width="30" height="30" rx="4" fill="#F5F5F5"/>
<path d="M18.3359 14.1667L20.0026 15.8333L23.3359 12.5" stroke="#19BC64" stroke-width="1.25" stroke-linecap="round" stroke-linejoin="round"/>
<path d="M18.3307 22.5V20.8333C18.3307 19.9493 17.9795 19.1014 17.3544 18.4763C16.7293 17.8512 15.8815 17.5 14.9974 17.5H9.9974C9.11334 17.5 8.26549 17.8512 7.64037 18.4763C7.01525 19.1014 6.66406 19.9493 6.66406 20.8333V22.5" fill="#19BC64"/>
<path d="M12.4974 14.1667C14.3383 14.1667 15.8307 12.6743 15.8307 10.8333C15.8307 8.99238 14.3383 7.5 12.4974 7.5C10.6564 7.5 9.16406 8.99238 9.16406 10.8333C9.16406 12.6743 10.6564 14.1667 12.4974 14.1667Z" fill="#19BC64"/>
</svg>
